<svg width="244.101" height="76.501" viewBox="0 0 244.101 76.501" xmlns="http://www.w3.org/2000/svg"><g id="svgGroup" stroke-linecap="round" fill-rule="nonzero" font-size="9pt" stroke="#2dadf2" stroke-width="0.25mm" fill="none" style="stroke:#2dadf2;stroke-width:0.25mm;fill:none"><path class="animationpath" d="M 35.1 24.5 L 35.1 24.4 Q 35.1 23.607 35.73 23.443 A 1.473 1.473 0 0 1 36.1 23.4 A 1.619 1.619 0 0 1 36.478 23.44 Q 36.983 23.562 37.078 24.052 A 1.301 1.301 0 0 1 37.1 24.3 A 7.345 7.345 0 0 0 40.004 29.445 A 9.2 9.2 0 0 0 40.35 29.7 A 17.978 17.978 0 0 0 44.742 31.93 A 22.172 22.172 0 0 0 47.05 32.6 Q 50.9 33.5 54.2 33.5 Q 61.9 33.5 67.65 30.6 Q 73.4 27.7 76.55 23.35 Q 79.7 19 79.7 14.6 Q 79.7 11.2 77.65 8.35 A 11.186 11.186 0 0 0 75.113 5.847 Q 73.469 4.653 71.2 3.75 A 21.465 21.465 0 0 0 67.521 2.684 Q 65.618 2.299 63.381 2.131 A 49.16 49.16 0 0 0 59.7 2 A 46.247 46.247 0 0 0 48.641 3.39 A 56.038 56.038 0 0 0 44 4.75 Q 35.9 7.5 28.4 12.4 Q 20.9 17.3 14.95 23.8 A 55.356 55.356 0 0 0 6.005 36.794 A 52.046 52.046 0 0 0 5.5 37.85 Q 2 45.4 2 53.5 A 25.947 25.947 0 0 0 2.789 60.078 A 18.414 18.414 0 0 0 7.85 68.85 Q 13.7 74.5 23.4 74.5 Q 29.6 74.5 35.65 72.55 Q 41.7 70.6 46.6 66.75 Q 51.5 62.9 54.3 57.2 Q 54.53 56.741 54.848 55.93 A 39.296 39.296 0 0 0 55.05 55.4 Q 55.5 54.2 55.9 53 A 19.893 19.893 0 0 0 56.056 52.514 Q 56.259 51.848 56.293 51.519 A 1.162 1.162 0 0 0 56.3 51.4 Q 56.3 50.966 56.263 50.796 A 0.459 0.459 0 0 0 56.25 50.75 L 56.2 50.6 A 0.51 0.51 0 0 0 56.036 50.495 Q 55.874 50.426 55.612 50.407 A 2.967 2.967 0 0 0 55.4 50.4 A 3.106 3.106 0 0 0 54.379 50.56 A 2.55 2.55 0 0 0 53.1 51.55 A 9.33 9.33 0 0 0 52.217 53.144 A 11.786 11.786 0 0 0 51.8 54.25 Q 51.3 55.8 50.4 57 A 25.661 25.661 0 0 1 47.491 60.287 Q 45.976 61.743 44.095 63.149 A 43.745 43.745 0 0 1 43.55 63.55 Q 39.2 66.7 34.3 68.7 A 28.672 28.672 0 0 1 29.671 70.169 A 21.579 21.579 0 0 1 25 70.7 A 21.686 21.686 0 0 1 19.749 70.1 A 14.84 14.84 0 0 1 12.45 65.95 A 16.001 16.001 0 0 1 8.323 57.822 A 23.068 23.068 0 0 1 7.9 53.3 Q 7.9 46.5 11.1 39.6 A 55.459 55.459 0 0 1 18.307 28.11 A 63.036 63.036 0 0 1 19.65 26.5 Q 25 20.3 31.7 15.45 A 65.436 65.436 0 0 1 41.92 9.341 A 57.906 57.906 0 0 1 45.45 7.8 A 41.186 41.186 0 0 1 52.733 5.626 A 32.575 32.575 0 0 1 59 5 A 50.416 50.416 0 0 1 63.762 5.208 Q 69.803 5.784 72.85 7.95 A 12.494 12.494 0 0 1 74.994 9.845 Q 76.295 11.32 76.752 13.007 A 7.204 7.204 0 0 1 77 14.9 A 10.012 10.012 0 0 1 76.285 18.553 A 13.375 13.375 0 0 1 75.3 20.55 A 17.729 17.729 0 0 1 72.648 23.937 A 22.715 22.715 0 0 1 70.55 25.8 A 25.323 25.323 0 0 1 65.205 29.001 A 29.731 29.731 0 0 1 63.5 29.7 A 24.006 24.006 0 0 1 55.005 31.2 L 55 31.2 A 11.616 11.616 0 0 1 53.893 31.142 Q 52.744 31.031 51.212 30.711 A 41.352 41.352 0 0 1 50.7 30.6 A 34.83 34.83 0 0 1 45.937 29.167 A 38.798 38.798 0 0 1 45.25 28.9 A 17.391 17.391 0 0 1 42.568 27.562 A 13.86 13.86 0 0 1 40.6 26.1 Q 38.7 24.4 38.7 22.2 L 38.7 22 A 1.156 1.156 0 0 1 38.755 21.628 Q 38.93 21.113 39.664 21.101 A 2.163 2.163 0 0 1 39.7 21.1 Q 40.521 21.1 40.676 21.765 A 1.301 1.301 0 0 1 40.7 21.9 A 3.976 3.976 0 0 0 41.355 23.394 Q 41.825 24.071 42.6 24.7 Q 44.2 26 46.5 27.05 A 25.478 25.478 0 0 0 50.524 28.505 A 23.22 23.22 0 0 0 51.1 28.65 Q 52.756 29.046 54.048 29.157 A 11.158 11.158 0 0 0 55 29.2 Q 60.3 29.2 64.85 27 A 24.909 24.909 0 0 0 69.077 24.439 A 19.647 19.647 0 0 0 72.2 21.5 A 14.577 14.577 0 0 0 73.766 19.294 Q 75 17.125 75 15 A 5.535 5.535 0 0 0 73.713 11.482 Q 72.833 10.375 71.35 9.4 A 11.045 11.045 0 0 0 68.657 8.161 Q 65.863 7.262 61.605 7.059 A 54.866 54.866 0 0 0 59 7 A 31.95 31.95 0 0 0 51.221 8.003 A 41.488 41.488 0 0 0 46 9.7 A 57.844 57.844 0 0 0 35.214 15.408 A 66.202 66.202 0 0 0 32.8 17.1 Q 26.4 21.8 21.2 27.75 Q 16 33.7 12.95 40.3 A 33.833 33.833 0 0 0 10.505 47.561 A 27.954 27.954 0 0 0 9.9 53.3 A 19.846 19.846 0 0 0 10.46 58.145 A 13.974 13.974 0 0 0 13.9 64.5 A 13.139 13.139 0 0 0 20.77 68.269 A 19.652 19.652 0 0 0 25 68.7 Q 28 68.7 31.75 67.45 A 39.13 39.13 0 0 0 37.811 64.825 A 44.403 44.403 0 0 0 39.2 64.05 A 37.546 37.546 0 0 0 44.589 60.274 A 33.707 33.707 0 0 0 45.8 59.2 A 21.308 21.308 0 0 0 47.876 56.99 Q 49.188 55.363 49.9 53.7 Q 50.8 51.7 51.7 50.05 A 2.863 2.863 0 0 1 53.238 48.745 Q 53.776 48.535 54.461 48.453 A 7.915 7.915 0 0 1 55.4 48.4 A 4.022 4.022 0 0 1 56.565 48.554 Q 58.3 49.08 58.3 51.4 A 3.244 3.244 0 0 1 58.265 51.846 Q 58.198 52.327 58 53.011 A 17.304 17.304 0 0 1 57.85 53.5 Q 57.4 54.9 56.9 56.2 Q 56.4 57.5 56.1 58.1 Q 53.2 64.2 47.95 68.3 Q 42.7 72.4 36.3 74.45 Q 29.9 76.5 23.4 76.5 Q 16.5 76.5 11.2 73.7 Q 5.9 70.9 2.95 65.75 A 21.896 21.896 0 0 1 0.415 58.551 A 29.497 29.497 0 0 1 0 53.5 Q 0 45 3.6 37.05 Q 7.2 29.1 13.4 22.4 Q 19.6 15.7 27.35 10.65 Q 35.1 5.6 43.45 2.8 A 54.156 54.156 0 0 1 53.964 0.362 A 46.278 46.278 0 0 1 59.7 0 A 47.815 47.815 0 0 1 64.663 0.242 Q 67.15 0.503 69.256 1.042 A 22.088 22.088 0 0 1 72.3 2.05 A 21.457 21.457 0 0 1 75.594 3.754 Q 77.365 4.888 78.608 6.275 A 11.789 11.789 0 0 1 79.5 7.4 Q 81.8 10.7 81.8 14.6 A 15.346 15.346 0 0 1 80.731 20.15 A 18.999 18.999 0 0 1 79.9 22 A 20.48 20.48 0 0 1 76.461 26.781 A 25.576 25.576 0 0 1 74.35 28.75 A 27.047 27.047 0 0 1 68.719 32.342 A 33.437 33.437 0 0 1 65.6 33.65 Q 60.5 35.5 54.2 35.5 A 28.3 28.3 0 0 1 52.033 35.411 Q 50.895 35.324 49.62 35.15 A 53.009 53.009 0 0 1 48.6 35 Q 45.4 34.5 42.3 33.25 A 16.294 16.294 0 0 1 39.184 31.602 A 13.408 13.408 0 0 1 37.15 29.9 A 7.126 7.126 0 0 1 35.161 25.599 A 9.709 9.709 0 0 1 35.1 24.5 Z M 79.989 67.309 Q 78.331 67.091 77.419 66.347 A 3.015 3.015 0 0 1 77.15 66.1 A 4.429 4.429 0 0 1 75.901 62.959 A 5.733 5.733 0 0 1 75.9 62.9 Q 75.9 61.025 76.735 58.843 A 16.718 16.718 0 0 1 76.85 58.55 A 37.969 37.969 0 0 1 77.691 56.618 Q 78.135 55.674 78.59 54.866 A 21.787 21.787 0 0 1 78.8 54.5 Q 80.3 51.9 82.9 48.3 A 185.528 185.528 0 0 1 86.365 43.664 A 224.868 224.868 0 0 1 88.65 40.75 Q 91.8 36.8 95.05 33.1 Q 98.3 29.4 101.2 26.55 Q 104.1 23.7 106 22.3 Q 106.2 22.1 106.6 22.1 Q 107.394 22.1 107.558 22.73 A 1.473 1.473 0 0 1 107.6 23.1 A 1.004 1.004 0 0 1 107.515 23.519 Q 107.416 23.739 107.2 23.9 A 19.772 19.772 0 0 0 105.925 24.859 Q 104.636 25.904 103.033 27.473 A 69.41 69.41 0 0 0 102.5 28 Q 99.7 30.8 96.5 34.45 Q 93.3 38.1 90.15 42 Q 87 45.9 84.45 49.4 A 77.897 77.897 0 0 0 82.716 51.874 Q 81.923 53.056 81.291 54.113 A 35.249 35.249 0 0 0 80.5 55.5 A 77.526 77.526 0 0 0 80.131 56.194 Q 79.55 57.3 78.8 58.8 A 10.925 10.925 0 0 0 78.172 60.317 Q 77.8 61.464 77.8 62.5 A 3.441 3.441 0 0 0 77.922 63.44 A 2.624 2.624 0 0 0 78.6 64.6 Q 79.4 65.4 81.5 65.4 A 13.688 13.688 0 0 0 83.834 65.186 Q 84.964 64.99 86.212 64.615 A 27.554 27.554 0 0 0 87.75 64.1 A 27.127 27.127 0 0 0 91.763 62.227 A 35.975 35.975 0 0 0 95 60.15 Q 98.7 57.5 101.8 53.6 Q 105.2 49.1 108.6 45.4 A 36.44 36.44 0 0 1 112.283 41.892 A 28.412 28.412 0 0 1 115.65 39.5 Q 119.3 37.3 123.3 37.3 Q 126.2 37.3 128.124 38.107 A 6.1 6.1 0 0 1 130.4 39.7 A 8.442 8.442 0 0 1 132.496 45.184 A 10.788 10.788 0 0 1 132.5 45.5 A 15.033 15.033 0 0 1 131.951 49.468 A 17.701 17.701 0 0 1 131.6 50.6 Q 130.7 53.2 129.1 55.5 A 1.236 1.236 0 0 1 128.903 55.711 A 0.769 0.769 0 0 1 128.4 55.9 A 1.153 1.153 0 0 1 127.908 55.798 Q 127.671 55.687 127.493 55.458 A 1.459 1.459 0 0 1 127.45 55.4 Q 127.124 54.934 127.45 54.38 A 1.707 1.707 0 0 1 127.5 54.3 Q 130.031 50.588 130.427 47.089 A 11.464 11.464 0 0 0 130.5 45.8 A 7.85 7.85 0 0 0 130.2 43.579 A 6.151 6.151 0 0 0 128.75 41.05 A 5.503 5.503 0 0 0 126.397 39.607 Q 125.514 39.321 124.44 39.236 A 11.936 11.936 0 0 0 123.5 39.2 A 12.72 12.72 0 0 0 117.571 40.721 Q 115.439 41.831 113.35 43.75 A 72.531 72.531 0 0 0 108.655 48.51 Q 106.304 51.11 103.901 54.193 A 122.607 122.607 0 0 0 103.2 55.1 Q 103 55.301 102.799 55.367 A 0.629 0.629 0 0 1 102.6 55.4 A 0.806 0.806 0 0 1 102.059 55.189 Q 101.942 55.087 101.837 54.936 A 1.991 1.991 0 0 1 101.75 54.8 A 1.258 1.258 0 0 1 101.63 54.529 Q 101.525 54.18 101.674 53.831 A 1.422 1.422 0 0 1 101.8 53.6 A 1.236 1.236 0 0 1 101.998 53.389 A 0.769 0.769 0 0 1 102.5 53.2 A 1.039 1.039 0 0 1 103.316 53.57 A 1.474 1.474 0 0 1 103.45 53.75 Q 103.768 54.25 103.385 54.79 A 1.773 1.773 0 0 1 103.3 54.9 A 35.662 35.662 0 0 1 97.99 60.416 A 31.993 31.993 0 0 1 96.2 61.8 A 36.063 36.063 0 0 1 91.95 64.444 A 28.397 28.397 0 0 1 88.45 66 A 26.551 26.551 0 0 1 85.446 66.907 Q 83.341 67.4 81.5 67.4 A 11.607 11.607 0 0 1 79.989 67.309 Z M 127.2 60.3 Q 123.9 60.3 121.5 58.3 A 6.533 6.533 0 0 1 119.121 53.525 A 9.104 9.104 0 0 1 119.1 52.9 A 9.333 9.333 0 0 1 119.234 51.362 A 11.752 11.752 0 0 1 119.45 50.35 Q 119.8 49 120.5 47.5 A 1.297 1.297 0 0 1 120.711 47.19 A 0.904 0.904 0 0 1 121.4 46.9 A 1.076 1.076 0 0 1 122.2 47.246 A 1.444 1.444 0 0 1 122.25 47.3 Q 122.577 47.674 122.337 48.223 A 1.708 1.708 0 0 1 122.3 48.3 A 11.608 11.608 0 0 0 121.762 49.547 A 8.937 8.937 0 0 0 121.45 50.6 Q 121.2 51.7 121.2 52.7 A 6.484 6.484 0 0 0 121.413 54.409 A 4.613 4.613 0 0 0 123 56.85 A 6.539 6.539 0 0 0 126.838 58.288 A 8.296 8.296 0 0 0 127.3 58.3 A 9.616 9.616 0 0 0 130.231 57.827 A 12.282 12.282 0 0 0 131.8 57.2 A 10.772 10.772 0 0 0 134.39 55.436 A 14.434 14.434 0 0 0 136 53.7 A 1.236 1.236 0 0 1 136.198 53.489 A 0.769 0.769 0 0 1 136.7 53.3 A 0.919 0.919 0 0 1 137.252 53.489 Q 137.387 53.588 137.514 53.739 A 2.089 2.089 0 0 1 137.6 53.85 A 1.23 1.23 0 0 1 137.718 54.046 Q 137.882 54.393 137.718 54.719 A 1.04 1.04 0 0 1 137.6 54.9 A 1.045 1.045 0 0 1 137.292 55.118 A 0.94 0.94 0 0 1 136.9 55.2 A 0.863 0.863 0 0 1 136.309 54.963 Q 136.171 54.839 136.05 54.65 Q 135.732 54.151 136.115 53.61 A 1.773 1.773 0 0 1 136.2 53.5 Q 137.378 52.224 139.762 49.549 A 863.711 863.711 0 0 0 139.85 49.45 Q 142.298 46.703 145.544 43.506 A 143.587 143.587 0 0 1 145.55 43.5 Q 148.8 40.3 152.3 37.4 Q 155.8 34.5 159.05 32.6 A 18.346 18.346 0 0 1 161.008 31.598 Q 162.045 31.149 162.993 30.925 A 7.846 7.846 0 0 1 164.8 30.7 Q 167.4 30.7 168.6 33.3 Q 168.8 33.7 168.9 34.15 A 4.269 4.269 0 0 1 168.997 34.915 A 4.864 4.864 0 0 1 169 35.1 A 5.047 5.047 0 0 1 168.419 37.42 A 7.093 7.093 0 0 1 167.65 38.6 A 6.757 6.757 0 0 1 165.672 40.265 Q 164.852 40.732 163.836 41.057 A 11.895 11.895 0 0 1 163.7 41.1 A 4.314 4.314 0 0 0 163.555 41.686 Q 163.4 42.535 163.4 43.9 A 42.98 42.98 0 0 0 163.459 46.103 A 50.995 50.995 0 0 0 163.55 47.5 Q 163.665 48.955 163.692 49.882 A 17.98 17.98 0 0 1 163.7 50.4 A 26.343 26.343 0 0 1 163.717 51.341 Q 163.717 53.228 163.452 55.225 A 33.676 33.676 0 0 1 163.3 56.25 A 17.452 17.452 0 0 1 161.897 60.75 A 20.971 20.971 0 0 1 161.1 62.3 Q 164 61 166.75 58.85 A 24.256 24.256 0 0 0 170.856 54.729 A 28.011 28.011 0 0 0 171.7 53.6 A 1.236 1.236 0 0 1 171.898 53.389 A 0.769 0.769 0 0 1 172.4 53.2 A 0.806 0.806 0 0 1 172.941 53.412 Q 173.058 53.514 173.164 53.664 A 1.991 1.991 0 0 1 173.25 53.8 Q 173.553 54.319 173.295 54.763 A 1.125 1.125 0 0 1 173.2 54.9 A 24.643 24.643 0 0 1 169.682 58.875 A 28.687 28.687 0 0 1 168.5 59.9 Q 165.7 62.2 162.95 63.6 A 18.715 18.715 0 0 1 161.401 64.308 Q 159.822 64.938 158.632 64.995 A 4.869 4.869 0 0 1 158.4 65 Q 157.491 65 157.408 64.338 A 1.121 1.121 0 0 1 157.4 64.2 A 1.191 1.191 0 0 1 157.664 63.454 A 1.636 1.636 0 0 1 157.8 63.3 A 14.374 14.374 0 0 0 159.8 60.591 A 11.401 11.401 0 0 0 161 57.5 Q 161.7 54.4 161.7 51.3 Q 161.7 49.2 161.55 47.3 Q 161.4 45.4 161.4 43.8 A 15.576 15.576 0 0 1 161.462 42.363 Q 161.593 40.951 162.005 40.066 A 3.56 3.56 0 0 1 162.2 39.7 A 1.201 1.201 0 0 1 162.406 39.494 Q 162.8 39.175 163.7 38.8 A 10.03 10.03 0 0 0 165.793 37.607 A 11.28 11.28 0 0 0 166 37.45 A 3.018 3.018 0 0 0 166.692 36.718 A 2.533 2.533 0 0 0 167.1 35.3 A 2.554 2.554 0 0 0 166.924 34.381 A 3.136 3.136 0 0 0 166.8 34.1 Q 166.704 33.716 166.192 33.331 A 3.388 3.388 0 0 0 166.15 33.3 A 1.868 1.868 0 0 0 165.595 33.03 Q 165.171 32.9 164.6 32.9 A 4.134 4.134 0 0 0 163.879 32.97 Q 163.188 33.093 162.297 33.433 A 14.83 14.83 0 0 0 162 33.55 A 11.067 11.067 0 0 0 160.932 34.059 Q 159.681 34.731 158.1 35.9 A 91.307 91.307 0 0 0 155.397 37.995 Q 154.109 39.029 152.673 40.243 A 205.247 205.247 0 0 0 149.65 42.85 A 102.639 102.639 0 0 0 146.347 45.896 Q 142.481 49.606 137.6 54.9 Q 135.3 57.7 132.55 59 Q 129.8 60.3 127.2 60.3 Z M 70.659 55.189 Q 70.542 55.087 70.437 54.936 A 1.991 1.991 0 0 1 70.35 54.8 Q 70.048 54.281 70.306 53.837 A 1.125 1.125 0 0 1 70.4 53.7 Q 72.4 51.4 74.1 48.9 Q 75.8 46.4 77.4 43.9 Q 80.1 39.9 83.35 35.3 Q 86.6 30.7 90.35 26.2 A 93.286 93.286 0 0 1 97.104 18.899 A 84.684 84.684 0 0 1 98.1 17.95 A 46.466 46.466 0 0 1 102.632 14.19 A 36.873 36.873 0 0 1 106.2 11.9 A 20.872 20.872 0 0 1 108.3 10.898 Q 109.406 10.449 110.406 10.225 A 8.658 8.658 0 0 1 112.3 10 A 6.543 6.543 0 0 1 113.872 10.178 A 4.32 4.32 0 0 1 116.25 11.65 Q 117.6 13.3 117.6 15.9 A 12.401 12.401 0 0 1 117.381 18.194 A 13.713 13.713 0 0 1 117.35 18.35 A 11.984 11.984 0 0 1 116.96 19.799 A 15.68 15.68 0 0 1 116.5 21 Q 116.258 21.564 114.945 23.2 A 68.442 68.442 0 0 1 114.25 24.05 Q 112.91 25.666 111.12 27.754 A 530.054 530.054 0 0 1 109.4 29.75 Q 106.5 33.1 103.25 36.7 A 2774.449 2774.449 0 0 1 98.516 41.931 A 2443.587 2443.587 0 0 1 97 43.6 Q 94 46.9 91.85 49.1 A 190.825 190.825 0 0 1 91.098 49.865 Q 89.588 51.394 89.1 51.8 Q 88.9 52.001 88.699 52.067 A 0.629 0.629 0 0 1 88.5 52.1 A 1.44 1.44 0 0 1 88.048 52.035 Q 87.4 51.821 87.4 50.9 Q 87.4 50.637 87.709 50.296 A 2.688 2.688 0 0 1 87.8 50.2 A 7.142 7.142 0 0 0 88.078 49.953 Q 88.737 49.34 90.237 47.776 A 193.658 193.658 0 0 0 90.5 47.5 Q 92.6 45.3 95.6 42.1 Q 98.6 38.9 101.8 35.35 Q 105 31.8 107.85 28.55 Q 110.7 25.3 112.6 23 A 84.895 84.895 0 0 0 113.253 22.201 Q 114.466 20.695 114.679 20.249 A 0.84 0.84 0 0 0 114.7 20.2 A 12.787 12.787 0 0 0 115.434 18.019 A 9.72 9.72 0 0 0 115.7 15.8 A 5.539 5.539 0 0 0 115.582 14.622 Q 115.383 13.709 114.85 13.05 A 2.72 2.72 0 0 0 113.347 12.119 Q 112.901 12.008 112.371 12.001 A 5.42 5.42 0 0 0 112.3 12 A 6.672 6.672 0 0 0 110.675 12.22 Q 109.171 12.599 107.32 13.633 A 22.655 22.655 0 0 0 107.2 13.7 A 36.548 36.548 0 0 0 102.813 16.634 A 47.757 47.757 0 0 0 99.4 19.55 A 87.036 87.036 0 0 0 93.195 26.01 A 98.344 98.344 0 0 0 91.8 27.65 Q 88.1 32.1 84.9 36.6 Q 81.7 41.1 79.1 45 Q 77.4 47.5 75.7 50.1 Q 74 52.7 72 55 A 1.004 1.004 0 0 1 71.681 55.284 Q 71.483 55.393 71.234 55.4 A 1.225 1.225 0 0 1 71.2 55.4 A 0.806 0.806 0 0 1 70.659 55.189 Z M 182.6 67.5 A 24.887 24.887 0 0 0 188.636 66.747 A 30.356 30.356 0 0 0 195.45 64.1 Q 201.9 60.7 206.4 54.9 A 134.317 134.317 0 0 0 206.588 54.68 Q 209.41 51.357 212.7 47.05 Q 216.1 42.6 219.5 37.8 Q 219.824 37.395 219.656 36.957 A 1.165 1.165 0 0 0 219.55 36.75 A 1.474 1.474 0 0 0 219.416 36.57 A 1.039 1.039 0 0 0 218.6 36.2 A 0.769 0.769 0 0 0 218.098 36.389 A 1.236 1.236 0 0 0 217.9 36.6 A 298.388 298.388 0 0 1 217.688 36.9 A 274.492 274.492 0 0 1 211.1 45.8 A 542.317 542.317 0 0 1 209.053 48.433 Q 206.888 51.2 205.1 53.4 A 7.834 7.834 0 0 0 205.03 53.501 Q 204.716 53.955 204.631 54.225 A 0.598 0.598 0 0 0 204.6 54.4 A 1.326 1.326 0 0 0 204.639 54.734 Q 204.745 55.141 205.144 55.256 A 1.296 1.296 0 0 0 205.5 55.3 A 1.16 1.16 0 0 0 206.059 55.159 A 1.474 1.474 0 0 0 206.4 54.9 A 1.773 1.773 0 0 0 206.485 54.79 Q 206.868 54.25 206.55 53.75 A 1.474 1.474 0 0 0 206.416 53.57 A 1.039 1.039 0 0 0 205.6 53.2 A 0.769 0.769 0 0 0 205.098 53.389 A 1.236 1.236 0 0 0 204.9 53.6 Q 200.6 59.2 194.55 62.35 A 30.739 30.739 0 0 1 190.737 64.028 A 23.976 23.976 0 0 1 182.6 65.5 A 10.075 10.075 0 0 1 182.199 65.492 Q 181.345 65.458 180.616 65.277 A 5.359 5.359 0 0 1 178.85 64.5 A 3.213 3.213 0 0 1 177.535 62.529 A 5.249 5.249 0 0 1 177.4 61.3 A 6.488 6.488 0 0 1 177.584 59.802 Q 177.983 58.118 179.25 56.2 A 29.074 29.074 0 0 1 181.132 53.673 A 37.307 37.307 0 0 1 183.95 50.65 A 56.351 56.351 0 0 1 185.381 49.316 A 49.143 49.143 0 0 1 189.75 45.8 Q 191.686 44.422 193.299 43.647 A 12.397 12.397 0 0 1 194.9 43 Q 195.6 42.7 195.6 42.1 A 2.37 2.37 0 0 0 195.6 42.069 Q 195.589 41.254 195.013 41.06 A 1.297 1.297 0 0 0 194.6 41 A 0.352 0.352 0 0 0 194.567 41.002 Q 194.492 41.009 194.45 41.05 A 0.148 0.148 0 0 1 194.412 41.078 Q 194.387 41.09 194.357 41.096 A 0.319 0.319 0 0 1 194.3 41.1 Q 192.719 41.581 190.712 42.772 A 34.074 34.074 0 0 0 188.8 44 Q 185.6 46.2 182.55 49.15 A 38.799 38.799 0 0 0 180.742 51.018 A 32.689 32.689 0 0 0 177.45 55.3 Q 175.4 58.5 175.4 61.3 Q 175.4 62.389 175.631 63.273 A 4.535 4.535 0 0 0 177.65 66.1 Q 179.9 67.5 182.6 67.5 Z M 226.3 37.3 L 234.9 37.3 Q 235.694 37.3 235.858 37.93 A 1.473 1.473 0 0 1 235.9 38.3 Q 235.9 39.094 235.271 39.258 A 1.473 1.473 0 0 1 234.9 39.3 L 226.8 39.3 Q 225.1 41.7 222.85 44.45 Q 220.6 47.2 218.55 49.7 Q 216.5 52.2 215.4 53.7 A 32.651 32.651 0 0 0 214.35 55.342 Q 213.877 56.136 213.526 56.851 A 13.819 13.819 0 0 0 213 58.05 A 13.048 13.048 0 0 0 212.577 59.361 Q 212.404 60.023 212.339 60.615 A 6.294 6.294 0 0 0 212.3 61.3 A 6.109 6.109 0 0 0 212.371 62.261 Q 212.454 62.778 212.632 63.199 A 3.03 3.03 0 0 0 212.9 63.7 A 3.916 3.916 0 0 0 215.738 65.624 A 5.81 5.81 0 0 0 216.7 65.7 A 8.596 8.596 0 0 0 219.673 65.147 Q 220.769 64.744 221.891 64.05 A 15.009 15.009 0 0 0 222.05 63.95 A 27.906 27.906 0 0 0 225.128 61.665 A 35.968 35.968 0 0 0 227.5 59.45 Q 230.2 56.7 232.4 53.7 A 1.004 1.004 0 0 1 232.719 53.416 Q 232.917 53.308 233.167 53.301 A 1.225 1.225 0 0 1 233.2 53.3 A 0.994 0.994 0 0 1 233.8 53.505 Q 233.937 53.606 234.064 53.756 A 2.03 2.03 0 0 1 234.1 53.8 A 0.877 0.877 0 0 1 234.221 53.997 Q 234.377 54.354 234.106 54.759 A 1.676 1.676 0 0 1 234 54.9 Q 230.3 60.1 225.6 63.9 A 22.31 22.31 0 0 1 222.712 65.904 Q 221.052 66.858 219.459 67.306 A 10.176 10.176 0 0 1 216.7 67.7 Q 213 67.7 211.2 64.8 Q 210.8 64 210.5 63.15 A 5.305 5.305 0 0 1 210.219 61.791 A 6.314 6.314 0 0 1 210.2 61.3 Q 210.2 59.979 210.714 58.325 A 17.179 17.179 0 0 1 211.05 57.35 A 16.344 16.344 0 0 1 211.995 55.315 Q 212.731 53.963 213.8 52.5 Q 214.794 51.055 216.604 48.834 A 122.25 122.25 0 0 1 217 48.35 Q 219.1 45.8 221.45 42.95 A 109.282 109.282 0 0 0 223.511 40.377 Q 224.461 39.15 225.272 38.021 A 65.623 65.623 0 0 0 225.5 37.7 A 0.089 0.089 0 0 1 225.523 37.646 Q 225.573 37.582 225.736 37.503 A 2.45 2.45 0 0 1 225.85 37.45 Q 226.135 37.328 226.254 37.306 A 0.254 0.254 0 0 1 226.3 37.3 Z M 183.372 58.036 A 5.204 5.204 0 0 1 181.8 57.4 Q 181.2 57.1 181.2 56.6 A 0.998 0.998 0 0 1 181.509 55.875 A 1.468 1.468 0 0 1 181.65 55.75 Q 182.086 55.411 182.663 55.682 A 1.699 1.699 0 0 1 182.7 55.7 A 7.372 7.372 0 0 0 183.642 56.024 Q 184.161 56.162 184.637 56.192 A 4.165 4.165 0 0 0 184.9 56.2 A 8.285 8.285 0 0 0 186.957 55.926 Q 188.172 55.614 189.5 54.95 A 22.416 22.416 0 0 0 193.412 52.438 A 25.824 25.824 0 0 0 194.3 51.7 A 20.852 20.852 0 0 0 196.843 49.083 A 17.632 17.632 0 0 0 198.05 47.4 A 10.912 10.912 0 0 0 198.934 45.703 Q 199.359 44.66 199.465 43.661 A 6.251 6.251 0 0 0 199.5 43 Q 199.5 39.731 196.83 39.069 A 6.367 6.367 0 0 0 195.3 38.9 Q 190.6 38.9 186.55 41.35 Q 182.5 43.8 179.15 47.45 A 68.329 68.329 0 0 0 174.202 53.481 A 61.386 61.386 0 0 0 173.2 54.9 A 1.238 1.238 0 0 1 172.993 55.164 A 0.832 0.832 0 0 1 172.4 55.4 A 0.926 0.926 0 0 1 171.75 55.133 A 1.479 1.479 0 0 1 171.55 54.9 Q 171.224 54.434 171.55 53.88 A 1.707 1.707 0 0 1 171.6 53.8 Q 174.2 50 177.7 46.1 Q 181.2 42.2 185.65 39.55 Q 190.1 36.9 195.3 36.9 A 7.463 7.463 0 0 1 197.405 37.184 A 5.876 5.876 0 0 1 199.75 38.5 Q 201.5 40.1 201.5 43 A 9.377 9.377 0 0 1 200.685 46.772 A 12.207 12.207 0 0 1 199.85 48.35 A 21.628 21.628 0 0 1 196.575 52.392 A 24.992 24.992 0 0 1 195.65 53.25 A 22.929 22.929 0 0 1 190.83 56.544 A 21.316 21.316 0 0 1 190.2 56.85 A 16.764 16.764 0 0 1 188.011 57.699 Q 186.826 58.059 185.738 58.161 A 9.033 9.033 0 0 1 184.9 58.2 A 6.797 6.797 0 0 1 183.372 58.036 Z M 146.1 68.1 A 10.865 10.865 0 0 0 146.703 68.117 Q 147.3 68.117 147.856 68.048 A 6.821 6.821 0 0 0 151.9 66.15 Q 154.1 64 155.2 60.6 Q 156.3 57.2 156.65 53.65 A 151.105 151.105 0 0 0 156.845 51.534 Q 156.93 50.527 156.99 49.623 A 75.677 75.677 0 0 0 157.1 47.6 A 1.473 1.473 0 0 0 157.058 47.23 Q 156.894 46.6 156.1 46.6 A 1.473 1.473 0 0 0 155.73 46.643 Q 155.1 46.807 155.1 47.6 Q 155 49.9 154.9 51.5 A 19.061 19.061 0 0 1 154.892 51.622 Q 154.782 53.227 154.3 56.5 Q 153.885 59.528 152.87 61.552 A 8.067 8.067 0 0 1 151.2 63.85 A 12.003 12.003 0 0 1 150.311 64.609 Q 149.521 65.217 148.743 65.577 A 5.312 5.312 0 0 1 146.5 66.1 Q 144.9 66.1 143.7 65 A 3.546 3.546 0 0 1 142.665 63.3 A 4.845 4.845 0 0 1 142.5 62 A 5.426 5.426 0 0 1 142.541 61.345 A 6.945 6.945 0 0 1 142.7 60.5 A 9.076 9.076 0 0 1 142.932 59.728 A 11.856 11.856 0 0 1 143.3 58.8 A 24.721 24.721 0 0 1 143.923 57.593 Q 144.493 56.557 145.23 55.421 A 50.621 50.621 0 0 1 146.8 53.15 Q 149.1 50 152.05 47.05 Q 155 44.1 157.9 42.3 Q 158.4 42 158.4 41.5 A 2.163 2.163 0 0 0 158.4 41.464 Q 158.388 40.73 157.873 40.555 A 1.156 1.156 0 0 0 157.5 40.5 A 0.564 0.564 0 0 0 157.397 40.511 Q 157.208 40.547 156.9 40.7 A 35.837 35.837 0 0 0 153.983 42.806 A 46.48 46.48 0 0 0 150.65 45.75 A 59.808 59.808 0 0 0 149.683 46.708 A 53.262 53.262 0 0 0 145.05 52.05 A 44.98 44.98 0 0 0 144.021 53.47 Q 143.215 54.631 142.582 55.716 A 23.354 23.354 0 0 0 141.4 58 A 10.454 10.454 0 0 0 140.986 58.938 A 8.513 8.513 0 0 0 140.4 62 A 7.724 7.724 0 0 0 140.423 62.597 A 5.786 5.786 0 0 0 142.05 66.3 Q 143.7 68 146.1 68.1 Z M 109.014 68.113 A 3.65 3.65 0 0 1 107.15 66.85 A 5.142 5.142 0 0 1 106.176 64.767 Q 106 63.999 106 63.1 A 11.821 11.821 0 0 1 106.396 60.156 Q 106.844 58.413 107.8 56.5 Q 109.6 52.9 112.45 49.65 A 34.58 34.58 0 0 1 115.736 46.358 A 27.872 27.872 0 0 1 118.4 44.3 Q 121.5 42.2 124 42.2 Q 125.372 42.2 125.4 43.16 A 1.386 1.386 0 0 1 125.4 43.2 A 1.069 1.069 0 0 1 125.228 43.778 A 1.451 1.451 0 0 1 125.1 43.95 Q 124.8 44.3 124.3 44.2 A 4.279 4.279 0 0 0 123.894 44.181 Q 121.938 44.181 119.45 45.9 A 25.814 25.814 0 0 0 116.404 48.386 A 33.528 33.528 0 0 0 114.1 50.8 Q 111.5 53.8 109.75 57.15 A 18.74 18.74 0 0 0 108.718 59.474 Q 108 61.471 108 63.2 A 5.634 5.634 0 0 0 108.083 64.19 Q 108.203 64.866 108.5 65.4 A 1.632 1.632 0 0 0 109.477 66.174 Q 109.875 66.3 110.4 66.3 Q 111.838 66.3 113.437 65.453 A 10.236 10.236 0 0 0 113.8 65.25 Q 115.6 64.2 117.1 62.7 A 17.546 17.546 0 0 0 118.103 61.615 Q 118.564 61.068 118.908 60.551 A 8.22 8.22 0 0 0 119.3 59.9 A 1.238 1.238 0 0 1 119.507 59.637 A 0.832 0.832 0 0 1 120.1 59.4 A 1.084 1.084 0 0 1 120.767 59.633 A 1.619 1.619 0 0 1 121 59.85 A 0.847 0.847 0 0 1 121.137 60.053 Q 121.313 60.431 121 60.9 Q 120.1 62.4 118.4 64.15 Q 116.7 65.9 114.6 67.1 A 9.496 9.496 0 0 1 112.504 67.999 A 7.614 7.614 0 0 1 110.4 68.3 A 4.866 4.866 0 0 1 109.014 68.113 Z M 228.8 33.5 L 235.9 25.8 A 1.684 1.684 0 0 0 236.383 24.79 A 2.314 2.314 0 0 0 236.4 24.5 Q 236.4 23.6 235.55 22.9 Q 234.7 22.2 233.6 22.2 Q 232.785 22.2 231.903 22.799 A 5.624 5.624 0 0 0 231.5 23.1 Q 230.3 24.1 227.8 26.9 A 161.289 161.289 0 0 0 225.827 29.155 Q 224.964 30.159 224.032 31.27 A 287.381 287.381 0 0 0 222.1 33.6 Q 222.1 33.7 221.8 33.85 Q 221.554 33.974 221.442 33.995 A 0.221 0.221 0 0 1 221.4 34 L 213.5 34 Q 212.707 34 212.543 33.371 A 1.473 1.473 0 0 1 212.5 33 Q 212.5 32.207 213.13 32.043 A 1.473 1.473 0 0 1 213.5 32 L 220.9 32 Q 223.9 28.2 226.4 25.45 A 149.712 149.712 0 0 1 227.569 24.178 Q 229.2 22.425 230.1 21.6 Q 231.6 20.2 233.6 20.2 A 5.311 5.311 0 0 1 235.477 20.523 A 4.801 4.801 0 0 1 237 21.45 A 4.494 4.494 0 0 1 237.9 22.529 A 3.641 3.641 0 0 1 238.4 24.4 Q 238.4 25.9 237.4 27 Q 237.2 27.3 236.05 28.6 A 100.851 100.851 0 0 1 235.124 29.631 Q 234.712 30.085 234.256 30.577 A 179.955 179.955 0 0 1 233.3 31.6 A 127.544 127.544 0 0 0 231.013 34.094 A 110.723 110.723 0 0 0 230.3 34.9 A 1.045 1.045 0 0 1 229.992 35.118 A 0.94 0.94 0 0 1 229.6 35.2 A 1.039 1.039 0 0 1 228.784 34.83 A 1.474 1.474 0 0 1 228.65 34.65 Q 228.332 34.151 228.715 33.61 A 1.773 1.773 0 0 1 228.8 33.5 Z M 145.382 74.166 Q 144.406 74.091 143.1 73.85 A 15.001 15.001 0 0 1 140.013 72.918 A 17.245 17.245 0 0 1 139.3 72.6 Q 137.4 71.7 136.1 70 A 6.172 6.172 0 0 1 134.968 67.453 A 8.711 8.711 0 0 1 134.8 65.7 L 134.8 64.95 A 2.785 2.785 0 0 1 134.832 64.541 A 3.572 3.572 0 0 1 134.9 64.2 A 1.059 1.059 0 0 1 135.01 63.832 Q 135.239 63.4 135.9 63.4 A 1.619 1.619 0 0 1 136.278 63.44 Q 136.783 63.562 136.878 64.052 A 1.301 1.301 0 0 1 136.9 64.3 A 5.693 5.693 0 0 1 136.881 64.781 A 4.731 4.731 0 0 1 136.85 65.05 Q 136.809 65.339 136.802 65.525 A 1.937 1.937 0 0 0 136.8 65.6 A 6.288 6.288 0 0 0 137.025 67.327 A 4.664 4.664 0 0 0 138.4 69.55 A 9.005 9.005 0 0 0 141.766 71.459 A 10.665 10.665 0 0 0 142.25 71.6 Q 144.5 72.2 146.3 72.2 A 30.679 30.679 0 0 0 151.253 71.816 A 24.986 24.986 0 0 0 154.55 71.05 A 36.485 36.485 0 0 0 157.948 69.831 A 26.602 26.602 0 0 0 161.05 68.3 A 36.454 36.454 0 0 0 162.793 67.224 Q 164.316 66.219 165.3 65.3 A 1.045 1.045 0 0 1 165.609 65.082 A 0.94 0.94 0 0 1 166 65 A 0.999 0.999 0 0 1 166.796 65.379 A 1.574 1.574 0 0 1 166.95 65.6 A 1.045 1.045 0 0 1 167.036 65.784 Q 167.189 66.225 166.8 66.61 A 1.588 1.588 0 0 1 166.7 66.7 A 15.719 15.719 0 0 1 165.429 67.761 Q 164.052 68.802 162.05 69.95 A 31.464 31.464 0 0 1 158.318 71.761 A 41.023 41.023 0 0 1 155 72.95 A 27.396 27.396 0 0 1 149.406 74.053 A 33.906 33.906 0 0 1 146.2 74.2 A 10.702 10.702 0 0 1 145.382 74.166 Z M 76.794 73.245 Q 74.209 72.729 72.166 71.46 A 12.445 12.445 0 0 1 72.15 71.45 Q 69.02 69.499 68.73 65.861 A 9.573 9.573 0 0 1 68.7 65.1 A 1.753 1.753 0 0 1 68.746 64.678 Q 68.883 64.128 69.427 64.024 A 1.463 1.463 0 0 1 69.7 64 A 1.297 1.297 0 0 1 70.113 64.06 Q 70.689 64.254 70.7 65.069 A 2.37 2.37 0 0 1 70.7 65.1 A 4.845 4.845 0 0 0 72.224 68.634 A 8.09 8.09 0 0 0 73.65 69.75 Q 76.231 71.369 80.076 71.571 A 21.394 21.394 0 0 0 81.2 71.6 Q 84.763 71.6 88.984 70.194 A 36.028 36.028 0 0 0 89.55 70 Q 94.1 68.4 98.5 64.7 Q 98.7 64.5 99.1 64.5 Q 99.894 64.5 100.058 65.13 A 1.473 1.473 0 0 1 100.1 65.5 A 1.004 1.004 0 0 1 100.015 65.919 Q 99.916 66.139 99.7 66.3 Q 95.4 70 90.3 71.8 A 32.875 32.875 0 0 1 85.06 73.198 A 25.722 25.722 0 0 1 80.6 73.6 A 19.414 19.414 0 0 1 76.794 73.245 Z M 106.363 73.932 A 9.687 9.687 0 0 1 103 71.75 A 8.827 8.827 0 0 1 101.215 69.317 Q 100.259 67.349 100.5 65 Q 100.5 64.207 101.13 64.043 A 1.473 1.473 0 0 1 101.5 64 A 0.936 0.936 0 0 1 102.004 64.151 A 1.403 1.403 0 0 1 102.25 64.35 Q 102.6 64.7 102.5 65.2 Q 102.3 67.8 104.55 70.25 A 7.4 7.4 0 0 0 109.948 72.694 A 9.736 9.736 0 0 0 110.3 72.7 Q 112.6 72.7 115.2 71.3 Q 117.221 70.212 119.242 67.976 A 26.637 26.637 0 0 0 120.4 66.6 L 121.05 65.8 Q 121.7 65 122.5 64.05 Q 123.3 63.1 123.6 62.5 Q 123.9 61.9 124.4 61.9 A 0.998 0.998 0 0 1 125.125 62.209 A 1.468 1.468 0 0 1 125.25 62.35 Q 125.589 62.786 125.318 63.363 A 1.699 1.699 0 0 1 125.3 63.4 A 9.831 9.831 0 0 1 124.175 65.144 A 11.598 11.598 0 0 1 123.7 65.7 Q 122.7 66.8 121.9 67.9 A 23.69 23.69 0 0 1 119.675 70.4 Q 118.405 71.626 117.088 72.459 A 12.762 12.762 0 0 1 116.05 73.05 A 15.562 15.562 0 0 1 113.429 74.11 A 11.33 11.33 0 0 1 110.2 74.6 A 10.689 10.689 0 0 1 106.363 73.932 Z M 177.642 72.931 A 20.915 20.915 0 0 1 176.8 72.7 A 10.994 10.994 0 0 1 173.623 71.198 A 10.047 10.047 0 0 1 172.25 70.05 A 6.187 6.187 0 0 1 170.539 66.702 A 8.875 8.875 0 0 1 170.4 65.1 A 1.753 1.753 0 0 1 170.446 64.678 Q 170.583 64.128 171.127 64.024 A 1.463 1.463 0 0 1 171.4 64 A 1.297 1.297 0 0 1 171.813 64.06 Q 172.389 64.254 172.4 65.069 A 2.37 2.37 0 0 1 172.4 65.1 A 7.824 7.824 0 0 0 172.481 66.261 Q 172.574 66.88 172.774 67.384 A 3.662 3.662 0 0 0 173.15 68.1 A 4.193 4.193 0 0 0 173.874 68.897 Q 174.613 69.538 175.8 70.1 A 14.042 14.042 0 0 0 178.563 71.045 A 15.91 15.91 0 0 0 179.05 71.15 A 21.195 21.195 0 0 0 180.299 71.364 Q 181.288 71.5 182.1 71.5 Q 185.8 71.5 189.35 70.1 Q 192.9 68.7 195.9 66.5 Q 196.1 66.3 196.5 66.3 Q 197.294 66.3 197.458 66.93 A 1.473 1.473 0 0 1 197.5 67.3 A 1.004 1.004 0 0 1 197.415 67.719 Q 197.316 67.939 197.1 68.1 Q 193.9 70.5 190.05 72 Q 186.2 73.5 182.1 73.5 A 18.237 18.237 0 0 1 177.642 72.931 Z M 210.793 73.384 A 7.805 7.805 0 0 1 207.25 71.45 Q 205.085 69.377 205.085 65.647 A 13.601 13.601 0 0 1 205.1 65 A 1.156 1.156 0 0 1 205.155 64.628 Q 205.33 64.113 206.064 64.101 A 2.163 2.163 0 0 1 206.1 64.1 A 1.251 1.251 0 0 1 206.795 64.312 A 1.548 1.548 0 0 1 206.85 64.35 A 0.616 0.616 0 0 1 207.118 64.801 Q 207.133 64.937 207.1 65.1 Q 207.044 66.679 207.576 67.988 A 6.363 6.363 0 0 0 208.75 69.85 A 5.597 5.597 0 0 0 211.495 71.503 Q 212.572 71.8 213.9 71.8 A 11.261 11.261 0 0 0 215.974 71.594 Q 216.978 71.406 218.085 71.045 A 23.126 23.126 0 0 0 219.45 70.55 Q 222.031 69.526 224.981 67.461 A 43.925 43.925 0 0 0 226.3 66.5 Q 226.5 66.3 226.9 66.3 Q 227.694 66.3 227.858 66.93 A 1.473 1.473 0 0 1 227.9 67.3 A 1.004 1.004 0 0 1 227.815 67.719 Q 227.716 67.939 227.5 68.1 A 34.195 34.195 0 0 1 223.612 70.664 A 26.392 26.392 0 0 1 220.15 72.3 A 23.941 23.941 0 0 1 217.292 73.207 Q 215.281 73.7 213.5 73.7 A 10.968 10.968 0 0 1 210.793 73.384 Z M 235.542 72.316 A 4.517 4.517 0 0 1 234.8 69.8 A 4.851 4.851 0 0 1 235.077 68.131 A 4.269 4.269 0 0 1 236.15 66.5 Q 237.5 65.2 239.4 65.2 A 5.067 5.067 0 0 1 241.172 65.5 A 4.52 4.52 0 0 1 242.75 66.5 A 4.348 4.348 0 0 1 244.097 69.614 A 5.784 5.784 0 0 1 244.1 69.8 A 4.571 4.571 0 0 1 243.734 71.649 A 4.385 4.385 0 0 1 242.8 73 A 1.045 1.045 0 0 1 242.492 73.218 A 0.94 0.94 0 0 1 242.1 73.3 A 0.863 0.863 0 0 1 241.509 73.063 Q 241.371 72.939 241.25 72.75 Q 240.932 72.251 241.315 71.71 A 1.773 1.773 0 0 1 241.4 71.6 A 3.838 3.838 0 0 0 241.826 70.926 Q 242.056 70.453 242.093 69.981 A 2.321 2.321 0 0 0 242.1 69.8 A 2.659 2.659 0 0 0 241.901 68.759 A 2.52 2.52 0 0 0 241.35 67.95 A 2.508 2.508 0 0 0 239.535 67.2 A 3.201 3.201 0 0 0 239.5 67.2 Q 238.4 67.2 237.6 67.95 Q 236.8 68.7 236.8 69.8 A 3.172 3.172 0 0 0 236.896 70.607 A 1.987 1.987 0 0 0 237.9 71.9 A 1.004 1.004 0 0 1 238.184 72.219 Q 238.293 72.418 238.3 72.667 A 1.225 1.225 0 0 1 238.3 72.7 A 0.994 0.994 0 0 1 238.095 73.3 Q 237.994 73.437 237.844 73.564 A 2.03 2.03 0 0 1 237.8 73.6 Q 237.3 74 236.7 73.6 A 5.89 5.89 0 0 1 235.542 72.316 Z" vector-effect="non-scaling-stroke"/></g></svg>